<svg width="120" height="43" viewBox="0 0 120 43" fill="none" xmlns="http://www.w3.org/2000/svg">
<path d="M19.2494 33.148C17.4487 33.148 15.8331 32.704 14.4024 31.816C12.9717 30.9033 11.8371 29.6823 10.9984 28.153C10.1844 26.599 9.7774 24.8477 9.7774 22.899C9.7774 20.9503 10.2214 19.199 11.1094 17.645C12.0221 16.091 13.2431 14.87 14.7724 13.982C16.3264 13.0693 18.0654 12.613 19.9894 12.613C21.9134 12.613 23.6401 13.0693 25.1694 13.982C26.6987 14.87 27.9074 16.091 28.7954 17.645C29.7081 19.199 30.1644 20.9503 30.1644 22.899V31.15C30.1644 31.6927 29.9794 32.149 29.6094 32.519C29.2641 32.8643 28.8201 33.037 28.2774 33.037C27.7347 33.037 27.2784 32.8643 26.9084 32.519C26.5631 32.149 26.3904 31.6927 26.3904 31.15V29.781C25.5271 30.817 24.4787 31.6433 23.2454 32.26C22.0367 32.852 20.7047 33.148 19.2494 33.148ZM19.9894 29.818C21.2474 29.818 22.3697 29.522 23.3564 28.93C24.3431 28.3133 25.1201 27.487 25.6874 26.451C26.2547 25.3903 26.5384 24.2063 26.5384 22.899C26.5384 21.567 26.2547 20.383 25.6874 19.347C25.1201 18.2863 24.3431 17.46 23.3564 16.868C22.3697 16.2513 21.2474 15.943 19.9894 15.943C18.7561 15.943 17.6337 16.2513 16.6224 16.868C15.6357 17.46 14.8464 18.2863 14.2544 19.347C13.6871 20.383 13.4034 21.567 13.4034 22.899C13.4034 24.2063 13.6871 25.3903 14.2544 26.451C14.8464 27.487 15.6357 28.3133 16.6224 28.93C17.6337 29.522 18.7561 29.818 19.9894 29.818ZM38.0752 33C37.5325 33 37.0762 32.815 36.7062 32.445C36.3362 32.075 36.1512 31.6187 36.1512 31.076V6.027C36.1512 5.45967 36.3362 5.00333 36.7062 4.658C37.0762 4.288 37.5325 4.103 38.0752 4.103H46.9182C48.5955 4.103 50.0632 4.436 51.3212 5.102C52.6038 5.74333 53.6028 6.64366 54.3182 7.803C55.0582 8.96233 55.4282 10.2943 55.4282 11.799C55.4282 13.0077 55.0952 14.1053 54.4292 15.092C53.7878 16.054 52.8998 16.8187 51.7652 17.386C53.3932 17.7807 54.7005 18.5577 55.6872 19.717C56.6738 20.8763 57.1672 22.3933 57.1672 24.268C57.1672 25.97 56.7602 27.4747 55.9462 28.782C55.1568 30.0893 54.0468 31.1253 52.6162 31.89C51.1855 32.63 49.5452 33 47.6952 33H38.0752ZM39.9992 15.98H46.9182C48.3242 15.98 49.4712 15.6347 50.3592 14.944C51.2718 14.2533 51.7282 13.205 51.7282 11.799C51.7282 10.393 51.2718 9.357 50.3592 8.691C49.4712 8.00033 48.3242 7.655 46.9182 7.655H39.9992V15.98ZM39.9992 29.448H47.6952C49.3725 29.448 50.7538 29.0163 51.8392 28.153C52.9245 27.265 53.4672 25.97 53.4672 24.268C53.4672 22.6893 52.9245 21.5053 51.8392 20.716C50.7538 19.9267 49.3725 19.532 47.6952 19.532H39.9992V29.448ZM70.9555 33.148C69.1548 33.148 67.5391 32.704 66.1085 31.816C64.6778 30.9033 63.5431 29.6823 62.7045 28.153C61.8905 26.599 61.4835 24.8477 61.4835 22.899C61.4835 20.9503 61.9275 19.199 62.8155 17.645C63.7281 16.091 64.9491 14.87 66.4785 13.982C68.0325 13.0693 69.7715 12.613 71.6955 12.613C73.6195 12.613 75.3461 13.0693 76.8755 13.982C78.4048 14.87 79.6135 16.091 80.5015 17.645C81.4141 19.199 81.8705 20.9503 81.8705 22.899V31.15C81.8705 31.6927 81.6855 32.149 81.3155 32.519C80.9701 32.8643 80.5261 33.037 79.9835 33.037C79.4408 33.037 78.9845 32.8643 78.6145 32.519C78.2691 32.149 78.0965 31.6927 78.0965 31.15V29.781C77.2331 30.817 76.1848 31.6433 74.9515 32.26C73.7428 32.852 72.4108 33.148 70.9555 33.148ZM71.6955 29.818C72.9535 29.818 74.0758 29.522 75.0625 28.93C76.0491 28.3133 76.8261 27.487 77.3935 26.451C77.9608 25.3903 78.2445 24.2063 78.2445 22.899C78.2445 21.567 77.9608 20.383 77.3935 19.347C76.8261 18.2863 76.0491 17.46 75.0625 16.868C74.0758 16.2513 72.9535 15.943 71.6955 15.943C70.4621 15.943 69.3398 16.2513 68.3285 16.868C67.3418 17.46 66.5525 18.2863 65.9605 19.347C65.3931 20.383 65.1095 21.567 65.1095 22.899C65.1095 24.2063 65.3931 25.3903 65.9605 26.451C66.5525 27.487 67.3418 28.3133 68.3285 28.93C69.3398 29.522 70.4621 29.818 71.6955 29.818ZM91.1132 41.88C90.8666 41.88 90.5706 41.806 90.2252 41.658C89.1399 41.1647 88.8439 40.3877 89.3372 39.327L93.0372 31.002L84.7122 15.203C84.4656 14.7343 84.4286 14.2903 84.6012 13.871C84.7986 13.427 85.1316 13.1063 85.6002 12.909C86.0689 12.7117 86.5129 12.6993 86.9322 12.872C87.3516 13.02 87.6722 13.3283 87.8942 13.797L94.6652 27.265L100.622 13.834C101.116 12.798 101.893 12.502 102.953 12.946C104.063 13.4147 104.372 14.1917 103.878 15.277L92.5562 40.733C92.2602 41.4977 91.7792 41.88 91.1132 41.88ZM106.913 33.05C106.519 33.05 106.129 32.9833 105.743 32.85C105.356 32.7167 105.043 32.5167 104.803 32.25C104.729 32.17 104.699 32.08 104.713 31.98C104.726 31.88 104.776 31.7933 104.863 31.72C104.956 31.6533 105.053 31.6267 105.153 31.64C105.253 31.6533 105.336 31.6967 105.403 31.77C105.563 31.9567 105.773 32.1 106.033 32.2C106.299 32.3 106.593 32.35 106.913 32.35C107.406 32.35 107.763 32.2667 107.983 32.1C108.203 31.9267 108.316 31.72 108.323 31.48C108.323 31.24 108.209 31.0433 107.983 30.89C107.756 30.73 107.383 30.6067 106.863 30.52C106.189 30.4133 105.696 30.2267 105.383 29.96C105.069 29.6933 104.913 29.3767 104.913 29.01C104.913 28.67 105.003 28.3867 105.183 28.16C105.363 27.9333 105.603 27.7633 105.903 27.65C106.203 27.5367 106.533 27.48 106.893 27.48C107.339 27.48 107.723 27.5567 108.043 27.71C108.369 27.8633 108.633 28.07 108.833 28.33C108.899 28.4167 108.926 28.5067 108.913 28.6C108.899 28.6933 108.846 28.77 108.753 28.83C108.673 28.8767 108.579 28.8933 108.473 28.88C108.373 28.86 108.286 28.81 108.213 28.73C107.886 28.3567 107.439 28.17 106.873 28.17C106.506 28.17 106.213 28.2467 105.993 28.4C105.773 28.5467 105.663 28.7333 105.663 28.96C105.663 29.1867 105.759 29.3733 105.953 29.52C106.153 29.6667 106.526 29.7867 107.073 29.88C107.573 29.96 107.966 30.08 108.253 30.24C108.546 30.3933 108.753 30.5767 108.873 30.79C108.999 30.9967 109.063 31.2233 109.063 31.47C109.063 31.7833 108.969 32.06 108.783 32.3C108.603 32.5333 108.349 32.7167 108.023 32.85C107.703 32.9833 107.333 33.05 106.913 33.05ZM112.533 33C112.18 33 111.863 32.9167 111.583 32.75C111.31 32.5833 111.093 32.3567 110.933 32.07C110.773 31.7767 110.693 31.4433 110.693 31.07V28.4H110.043C109.943 28.4 109.86 28.37 109.793 28.31C109.726 28.2433 109.693 28.1633 109.693 28.07C109.693 27.97 109.726 27.89 109.793 27.83C109.86 27.7633 109.943 27.73 110.043 27.73H110.693V26.18C110.693 26.0667 110.726 25.9733 110.793 25.9C110.866 25.8267 110.96 25.79 111.073 25.79C111.186 25.79 111.28 25.8267 111.353 25.9C111.426 25.9733 111.463 26.0667 111.463 26.18V27.73H112.593C112.693 27.73 112.776 27.7633 112.843 27.83C112.91 27.89 112.943 27.97 112.943 28.07C112.943 28.1633 112.91 28.2433 112.843 28.31C112.776 28.37 112.693 28.4 112.593 28.4H111.463V31.07C111.463 31.41 111.563 31.69 111.763 31.91C111.963 32.1233 112.22 32.23 112.533 32.23H112.803C112.91 32.23 112.996 32.2667 113.063 32.34C113.13 32.4133 113.163 32.5067 113.163 32.62C113.163 32.7333 113.123 32.8267 113.043 32.9C112.963 32.9667 112.863 33 112.743 33H112.533Z" fill="white"/>
</svg>
